<svg xmlns="http://www.w3.org/2000/svg" viewBox="0 0 98.31 174.83"><defs><style>.\33 c0c2e7d-ebff-45ca-bc39-fafb971be37c,.aa0af13c-c775-4c23-a58b-ac14bc73913d{fill:none;stroke-miterlimit:10;}.aa0af13c-c775-4c23-a58b-ac14bc73913d{stroke:#e39d7b;stroke-width:2px;}.\33 c0c2e7d-ebff-45ca-bc39-fafb971be37c{stroke:#754c24;}.cd735e5f-5c1f-41ea-b0ad-7ec894b848f8{fill:#e39d7b;}</style></defs><title>資產 10</title><g id="3e7ae702-76a8-4008-93a2-956ce7ddd502" data-name="圖層 2"><g id="f23f7199-f423-453e-9203-ca3705a971ed" data-name="圖層 2"><line class="aa0af13c-c775-4c23-a58b-ac14bc73913d" x1="21.06" y1="29.59" x2="21.06" y2="1"/><polyline class="aa0af13c-c775-4c23-a58b-ac14bc73913d" points="21.06 30.98 21.06 32.96 21.06 55.79 21.06 57.39 21.06 68.39 21.06 70.06 21.06 70.47 21.06 98.41 21.06 100.35 21.06 122.85 21.06 124.82 21.06 135.42 21.06 137.39 21.06 149.62 21.06 149.66 21.06 149.76"/><path class="3c0c2e7d-ebff-45ca-bc39-fafb971be37c" d="M14.37,31"/><path class="3c0c2e7d-ebff-45ca-bc39-fafb971be37c" d="M14.37,29.77"/><path class="aa0af13c-c775-4c23-a58b-ac14bc73913d" d="M14,29.78V1H57.13c.64,9.93,7.79,18.15,17.42,20.89a25.1,25.1,0,0,0,7.12,1,7.88,7.88,0,0,0,1.24-.07v77.52"/><path class="aa0af13c-c775-4c23-a58b-ac14bc73913d" d="M14,31V148.42a26.34,26.34,0,0,1,7,1.2l.13,0c9.49,3,16.28,11,16.28,20.39a10.76,10.76,0,0,1-.1,1.44H82.9V102.9"/><polyline class="aa0af13c-c775-4c23-a58b-ac14bc73913d" points="74.55 102.9 74.55 135.28 74.55 137.29 74.55 169.81 74.55 171.49"/><polyline class="aa0af13c-c775-4c23-a58b-ac14bc73913d" points="74.55 21.89 74.55 23.97 74.55 25.64 74.55 32.96 74.55 65.52 74.55 85.14 74.55 96.74 74.55 98.41 74.55 98.68 74.55 100.35"/><path class="cd735e5f-5c1f-41ea-b0ad-7ec894b848f8" d="M42.72,24.9,38.44,31h-.9l-1-6.42c1.44-.34,1.94-1.14,2-2L26.38,22l1.23,9H0l.57,2H27.91L29,40.78c4.61.07,8.25-.77,9.62-2.67L37.81,33H48.44c1,0,1.74-.37,1.87-1.14C47.6,29,42.72,24.9,42.72,24.9ZM66.19,61l-4.41,4.81H42.92l-1.27-.5c12.3-4,21.73-10,28.65-17.25,2.11-.13,3.21-.4,3.84-1.1L65,39.31,60,44H48.64c1-.84,2-1.67,2.94-2.51,2.37.14,3.41-.5,3.84-1.4L43.39,34c-3.58,6.65-12.27,15.91-22.33,21.79V57.4a74.85,74.85,0,0,0,13.4-4.75,18.14,18.14,0,0,1,3.65,6.85,7.2,7.2,0,0,0,2.24.77,124.39,124.39,0,0,1-19.29,8.12v1.67a96,96,0,0,0,11-2.07V87.92h1.47c4.18,0,8.86-2.18,8.86-3.15V82.33H62.48v4.38h1.74a57.38,57.38,0,0,0,10.33-1.57V65.52ZM38.94,50.41a71.84,71.84,0,0,0,7.12-4.48H59.14A63.32,63.32,0,0,1,45.5,57.26C46.4,54.65,44.86,51.31,38.94,50.41Zm23.54,30H42.42V67.79H62.48ZM73.71,24.9,69.46,31H67.73l.83-5.45c1.94-.14,2.44-.9,2.64-1.74l-12-2.11L57.86,31H51l.57,2h6l-.94,6.35c4.15.84,8.12.2,9.93-1.2L67.36,33h7.19V25.64C74,25.17,73.71,24.9,73.71,24.9Z"/><path class="cd735e5f-5c1f-41ea-b0ad-7ec894b848f8" d="M56.26,100.35l-4.38,4.92H32.26l-10.7-4v20.15H23c4.11,0,8.72-2.13,8.72-3v-1.34H52.58V120h1.81a24.5,24.5,0,0,0,8.36-1.81l.16-.13,0,0s0,0,0,0v-9.09a4.61,4.61,0,0,0,2.74-1.54Zm-3.68,14.81H31.69v-8H52.58Z"/><path class="cd735e5f-5c1f-41ea-b0ad-7ec894b848f8" d="M89,91.29,84.17,98l-.3.4H45.3c4.28-2.71,4.15-10.83-10.86-10.26l-.43.33a17.65,17.65,0,0,1,4.25,9.43,4.6,4.6,0,0,0,.84.5h-18v1.94H96.31c1,0,1.81-.33,2-1.1C94.9,96,89,91.29,89,91.29Z"/><path class="cd735e5f-5c1f-41ea-b0ad-7ec894b848f8" d="M74.55,135.28c-3.48-3-8.22-6.69-8.22-6.69l-5.15,6.82h-14V131a181.26,181.26,0,0,0,21.56-4c1.6-.1,2.31-.3,2.94-.94l-8.59-8.16-.2.17-.17.13-5.21,4.65H21.06v2H55c-2.51,1.3-5.52,2.71-8.52,4l-10-.77v7.39H21.06v2H36.44v5.92c0,.84-.33,1.14-1.27,1.14-1.6,0-10.66-.57-10.66-.57v.84c4.31.77,5.85,1.81,7.19,3.21s1.81,3.71,2.11,6.85c11.67-.9,13.4-4.41,13.4-11.17v-6.22H73.68a3.64,3.64,0,0,0,.87-.1,1.4,1.4,0,0,0,1.14-1C75.31,136,74.95,135.62,74.55,135.28Z"/><path class="cd735e5f-5c1f-41ea-b0ad-7ec894b848f8" d="M88.49,147.65a12,12,0,0,1-.4,3,35.2,35.2,0,0,1-1.64,5.14,12.44,12.44,0,0,1-.77,1.57,18,18,0,0,1-1.61,2.37A45.61,45.61,0,0,1,81,163.15a6.34,6.34,0,0,0-1.79,5.18c.07.88,0,1.82,0,2.74,0,1.24,0,2.52,0,3.76H77.07a5.7,5.7,0,0,0-.07-1.09,1.41,1.41,0,0,0-.44-.73.8.8,0,0,0-.15-.18c-.66-.66-1.35-1.28-2-1.9a1.34,1.34,0,0,0-.73-.33c-1.2-.11-2.44-.11-3.69-.29a17.33,17.33,0,0,1-5.36-1.68,20,20,0,0,1-6.64-5.33,17.5,17.5,0,0,1-3.58-6.57c-.26-1-.51-2-.77-3-.36-1.31-.77-2.63-1-4a1.8,1.8,0,0,1,.29-1.28c.22-.44.69-.47,1.17-.29,1.53.51,3.06,1,4.6,1.46s2.92.84,4.34,1.35a10.66,10.66,0,0,1,2.23,1.13c1.28.84,2.48,1.71,3.72,2.63a8,8,0,0,1,1.61,1.53,21.81,21.81,0,0,1,4.16,7.19,25.11,25.11,0,0,1,1,5.14c.07.58.51.88.88,1.2a.64.64,0,0,1,.18.15.52.52,0,0,1,.22-.07,8,8,0,0,1-.11-1.86,18.64,18.64,0,0,1,.55-3.17,6.71,6.71,0,0,1,2.23-3.43,2.26,2.26,0,0,0,.55-2.15,3.54,3.54,0,0,1,0-.62c.15-2.3.15-4.6.47-6.86A38.82,38.82,0,0,1,82,146.51c.62-2.08,1.31-4.12,2-6.2.22-.62.44-1.24.66-1.82.29-.91.58-1.79.91-2.66a1.14,1.14,0,0,1,.18-.36.9.9,0,0,1,1.09-.47,1.2,1.2,0,0,1,1,1.24c.11,1.93.29,3.83.4,5.76S88.45,145.75,88.49,147.65Z"/></g></g></svg>