<?xml version="1.0"?>
<svg xmlns="http://www.w3.org/2000/svg" xmlns:xlink="http://www.w3.org/1999/xlink" xmlns:svgjs="http://svgjs.com/svgjs" version="1.1" width="512" height="512" x="0" y="0" viewBox="0 0 24 24" style="enable-background:new 0 0 512 512" xml:space="preserve" class=""><g transform="matrix(0.8999999999999999,0,0,0.8999999999999999,1.1999999999999993,1.1999999999999993)"><path xmlns="http://www.w3.org/2000/svg" d="m8.5 24h-6c-1.379 0-2.5-1.122-2.5-2.5v-6.426c0-.469.131-.927.38-1.325l1.608-2.574c.461-.736 1.254-1.175 2.12-1.175h2.783c.866 0 1.659.439 2.12 1.174l1.608 2.574c.249.398.38.856.38 1.325v6.427c.001 1.378-1.12 2.5-2.499 2.5zm-4.392-13c-.521 0-.996.264-1.272.706l-1.608 2.573c-.149.239-.228.513-.228.795v6.426c0 .827.673 1.5 1.5 1.5h6c.827 0 1.5-.673 1.5-1.5v-6.426c0-.281-.079-.556-.228-.795l-1.608-2.573c-.276-.442-.752-.706-1.272-.706z" fill="#e39d7b" data-original="#000000" style="" class=""/><path xmlns="http://www.w3.org/2000/svg" d="m18 16c-2.206 0-4-1.794-4-4v-7c0-2.206-1.794-4-4-4s-4 1.794-4 4v5.5c0 .276-.224.5-.5.5s-.5-.224-.5-.5v-5.5c0-2.757 2.243-5 5-5s5 2.243 5 5v7c0 1.654 1.346 3 3 3s3-1.346 3-3v-5.5c0-.276.224-.5.5-.5s.5.224.5.5v5.5c0 2.206-1.794 4-4 4z" fill="#e39d7b" data-original="#000000" style="" class=""/><path xmlns="http://www.w3.org/2000/svg" d="m21.5 7c-.105 0-.211-.033-.3-.1l-1.2-.9c-.626-.47-1-1.218-1-2v-2.5c0-.827.673-1.5 1.5-1.5h2c.827 0 1.5.673 1.5 1.5v2.5c0 .782-.374 1.53-.999 2l-1.201.9c-.089.067-.195.1-.3.1zm-1-6c-.275 0-.5.224-.5.5v2.5c0 .469.225.918.601 1.2l.899.675.9-.675c.375-.282.6-.731.6-1.2v-2.5c0-.276-.225-.5-.5-.5z" fill="#e39d7b" data-original="#000000" style="" class=""/><path xmlns="http://www.w3.org/2000/svg" d="m3.5 21c-.128 0-.256-.049-.354-.146-.195-.195-.195-.512 0-.707l1-1c.195-.195.512-.195.707 0s.195.512 0 .707l-1 1c-.097.097-.225.146-.353.146z" fill="#e39d7b" data-original="#000000" style="" class=""/><path xmlns="http://www.w3.org/2000/svg" d="m6.5 21c-.128 0-.256-.049-.354-.146-.195-.195-.195-.512 0-.707l1-1c.195-.195.512-.195.707 0s.195.512 0 .707l-1 1c-.097.097-.225.146-.353.146z" fill="#e39d7b" data-original="#000000" style="" class=""/><path xmlns="http://www.w3.org/2000/svg" d="m3.5 17c-.128 0-.256-.049-.354-.146-.195-.195-.195-.512 0-.707l1-1c.195-.195.512-.195.707 0s.195.512 0 .707l-1 1c-.097.097-.225.146-.353.146z" fill="#e39d7b" data-original="#000000" style="" class=""/><path xmlns="http://www.w3.org/2000/svg" d="m6.5 17c-.128 0-.256-.049-.354-.146-.195-.195-.195-.512 0-.707l1-1c.195-.195.512-.195.707 0s.195.512 0 .707l-1 1c-.097.097-.225.146-.353.146z" fill="#e39d7b" data-original="#000000" style="" class=""/></g></svg>
